<svg xmlns="http://www.w3.org/2000/svg" width="203" height="268" viewBox="0 0 203 268" fill="none"><g clip-path="url(#clip0)"><path fill-rule="evenodd" clip-rule="evenodd" d="M73.9191 106.347C78.0371 109.436 93.4831 111.152 99.1941 110.98C100.584 110.938 101.472 110.374 102.029 109.551C102.588 110.374 103.475 110.938 104.864 110.98C110.576 111.152 126.021 109.436 130.141 106.347C134.26 103.258 130.827 97.2509 131.514 94.1619C132.2 91.0719 140.609 80.7749 148.161 80.4329C155.712 80.0889 169.27 85.5809 173.046 98.1089C176.821 110.638 175.791 123.509 166.181 128.829C156.57 134.149 147.475 131.231 145.758 128.829C144.042 126.427 136.834 126.598 134.088 130.202C131.342 133.806 121.731 140.156 121.731 143.932C121.731 144.124 121.733 144.318 121.735 144.513C119.748 143.571 117.352 143.18 116.176 145.834C113.968 150.821 109.824 165.138 110.929 169.956C112.032 174.774 119.106 173.302 120.658 175.805C131.04 192.551 120.479 206.129 109.772 210.01C109.642 207.416 108.6 186.383 108.756 182.603C108.925 178.549 109.796 146.56 109.806 146.237C109.822 145.639 110.035 145.083 110.421 144.633C118.154 135.588 123.218 129.707 123.563 129.343C123.938 129.091 125.606 128.664 126.71 128.383C127.764 128.113 128.854 127.834 129.649 127.545C130.751 127.144 134.285 124.534 142.315 118.446C145.992 115.658 149.793 112.775 150.824 112.158C153.48 110.563 164.827 104.428 165.814 104.052L165.392 102.747L165.065 101.413C163.976 101.68 151.019 108.839 149.411 109.804C148.253 110.498 144.733 113.167 140.657 116.258C136.309 119.555 129.736 124.537 128.711 124.965C128.043 125.208 127.02 125.469 126.03 125.721C123.695 126.319 122.342 126.688 121.688 127.344C121.147 127.884 114.128 136.073 108.335 142.847C107.547 143.768 107.095 144.943 107.06 146.161C107.052 146.484 106.181 178.455 106.013 182.488C105.84 186.623 106.994 209.448 107.042 210.418L108.81 210.328C106.565 211.019 104.343 211.284 102.333 211.043C100.433 210.815 98.5771 210.462 96.7831 210.009H96.9151C96.9461 200.112 97.1361 173.803 97.6371 170.941C98.1801 167.835 97.8551 153.128 97.6901 146.948C97.6611 145.882 97.3191 144.858 96.6981 143.985C89.3431 133.679 84.6981 128.142 82.8931 127.528C82.2971 127.326 81.6881 127.143 81.0501 126.949C79.0011 126.33 76.6811 125.629 73.3671 123.844C71.5971 122.891 65.8751 119.002 59.8171 114.887C47.9061 106.791 40.5411 101.845 38.7101 101.411L38.0711 104.082C39.6781 104.52 50.8691 112.124 58.2741 117.157C64.6581 121.495 70.1701 125.241 72.0671 126.263C75.6231 128.178 78.1901 128.954 80.2551 129.577C80.8631 129.761 81.4411 129.937 81.9871 130.12C83.0161 130.587 87.3581 135.624 94.4621 145.578C94.7641 146.003 94.9321 146.502 94.9441 147.021C95.2071 156.824 95.3421 168.13 94.9321 170.467C94.3311 173.895 94.1911 204 94.1721 209.257C86.0101 206.563 79.7871 201.294 79.0331 193.287C78.0431 182.762 83.7791 175.825 86.4161 175.221C89.0531 174.616 91.5141 168.175 89.4811 164.375C87.4501 160.575 85.5951 149.658 82.4261 148.223C82.2581 148.146 82.0881 148.07 81.9171 147.996C82.2781 146.741 82.3281 145.314 82.3281 143.932C82.3281 140.156 72.7171 133.806 69.9721 130.202C67.2261 126.598 60.0181 126.427 58.3011 128.829C56.5851 131.231 47.4891 134.149 37.8791 128.829C28.2681 123.509 27.2381 110.638 31.0141 98.1089C34.7891 85.5809 48.3481 80.0889 55.8981 80.4329C63.4501 80.7749 71.8591 91.0719 72.5461 94.1619C73.2321 97.2509 69.8001 103.258 73.9191 106.347Z" fill="#FFFFFE"></path><path fill-rule="evenodd" clip-rule="evenodd" d="M171.759 155.362C181.07 152.581 178.906 142.214 177.923 138.831L169.255 147.628C170.395 147.793 171.193 148.052 171.398 148.394C171.752 148.982 171.862 151.754 171.759 155.362Z" fill="#009949"></path><path fill-rule="evenodd" clip-rule="evenodd" d="M180.322 166.929C184.285 159.994 185.386 150.495 185.464 133.284L183.064 134.49C183.621 141.275 182.984 146.604 181.009 152.967C179.73 157.084 174.927 159.616 171.466 160.945C171.031 166.842 170.181 173.144 168.996 175.853C166.593 181.345 176.204 174.137 180.322 166.929Z" fill="#009949"></path><path fill-rule="evenodd" clip-rule="evenodd" d="M197.484 120.248C197.142 115.442 194.615 108.851 192.961 114.206C191.98 117.379 190.501 123.294 189.525 131.242C188.854 136.71 188.42 143.131 188.561 150.319C188.903 167.958 185.631 171.318 175.082 180.106C164.533 188.896 161.788 191.299 161.788 191.299C161.788 191.299 168.318 165.424 167.627 159.14C167.264 155.834 166.339 153.192 164.92 152.027C163.643 150.979 161.966 151.126 159.922 153.116C155.609 157.317 152.272 184.091 148.449 191.642C144.626 199.193 140.816 207.247 140.816 207.247C140.816 207.247 133.231 223.993 140.816 228.412C148.401 232.83 149.933 233.174 165.814 214.639C181.695 196.104 196.455 184.434 197.484 168.302C198.515 152.169 197.828 125.054 197.484 120.248Z" fill="#009949"></path><path fill-rule="evenodd" clip-rule="evenodd" d="M31.241 155.362C31.138 151.754 31.248 148.982 31.602 148.394C31.807 148.052 32.605 147.793 33.745 147.628L25.077 138.831C24.094 142.214 21.93 152.581 31.241 155.362Z" fill="#FFFFFE"></path><path fill-rule="evenodd" clip-rule="evenodd" d="M34.0041 175.853C32.8191 173.144 31.9691 166.842 31.5341 160.945C28.0731 159.616 23.2701 157.084 21.9911 152.967C20.0161 146.604 19.3791 141.275 19.9361 134.49L17.5361 129.744C17.6141 146.956 18.7151 159.994 22.6781 166.929C26.7961 174.137 36.4071 181.345 34.0041 175.853Z" fill="#FFFFFE"></path><path fill-rule="evenodd" clip-rule="evenodd" d="M62.1843 228.412C69.7693 223.993 62.1843 207.247 62.1843 207.247C62.1843 207.247 58.3743 199.193 54.5513 191.642C50.7283 184.091 47.3913 157.317 43.0783 153.116C41.0343 151.126 39.3573 150.979 38.0803 152.027C36.6613 153.192 35.7363 155.834 35.3733 159.14C34.6823 165.424 41.2123 191.299 41.2123 191.299C41.2123 191.299 38.4673 188.896 27.9183 180.106C17.3693 171.318 14.0973 167.958 14.4403 150.319C14.5803 143.131 14.1463 136.71 13.4753 131.242C12.4993 123.294 11.0203 117.379 10.0393 114.206C8.3853 108.851 5.8583 115.442 5.5163 120.248C5.1723 125.054 4.4853 152.169 5.5163 168.302C6.5453 184.434 21.3053 196.104 37.1863 214.639C53.0673 233.174 54.5993 232.83 62.1843 228.412Z" fill="#009949"></path><path fill-rule="evenodd" clip-rule="evenodd" d="M50.8083 58.3511C50.8083 58.3511 51.9513 58.1221 53.3243 56.6351C54.6973 55.1481 64.8803 37.5271 66.7113 33.7521C68.5413 29.9771 70.7153 30.6631 70.7153 30.6631L71.1733 32.2651C71.6303 37.6421 65.6814 45.7661 62.7064 48.6261C59.7314 51.4851 62.7064 53.6601 62.7064 53.6601C62.7064 53.6601 64.1934 52.8581 68.0834 47.8241C71.9744 42.7901 73.3474 33.7521 73.3474 33.7521L74.8344 31.9211H77.1273C77.2303 32.1781 77.3754 32.5101 77.5804 32.9511C79.0674 36.1541 75.2914 43.8201 73.2324 47.2531C71.1734 50.6851 73.2324 50.8001 73.2324 50.8001C80.7984 45.4211 80.4403 31.1201 79.7543 29.7471C79.0673 28.3741 76.0934 29.1751 74.7204 28.6041C73.3474 28.0311 74.7204 25.2851 74.7204 25.2851C74.7204 25.2851 80.4403 23.7981 80.2113 24.5991C79.9823 25.3991 81.1273 27.1161 83.2823 28.1461C85.4383 29.1751 89.1364 28.2601 89.1364 28.2601L89.4793 30.3191L90.6234 31.1201C90.8524 45.4221 95.3134 46.5661 99.7754 50.8001C104.238 55.0321 109.729 55.9481 109.729 55.9481C108.128 60.0661 109.959 67.0461 109.959 67.0461C109.959 67.0461 112.819 68.3051 115.107 66.2451C117.396 64.1861 116.366 55.9481 116.366 55.4901C116.366 55.0321 114.535 58.4651 114.535 58.4651C114.535 58.4651 114.535 58.4651 113.273 55.4901C112.012 52.5161 110.76 47.5961 110.76 47.5961C110.76 47.5961 109.387 44.0491 112.133 46.7951C114.878 49.5411 115.107 49.6551 115.908 47.9401C116.709 46.2231 115.222 40.8461 115.222 40.8461C115.222 40.8461 115.107 40.1591 116.022 40.5021C116.938 40.8461 118.997 42.5871 118.997 42.5871C118.997 42.5871 119.455 39.9301 120.256 40.3881C121.057 40.8461 121.171 41.7611 122.086 44.2771C123.002 46.7951 124.604 45.5361 124.604 45.5361C124.604 45.5361 124.26 43.8201 124.718 40.9601C125.176 38.1001 127.12 40.2731 127.12 40.2731C127.692 46.2231 132.727 51.4851 132.727 51.4851C135.015 47.7101 129.294 36.2691 129.294 36.2691C129.294 36.2691 127.921 35.6971 124.832 35.6971C121.743 35.6971 115.222 36.8411 115.222 36.8411C115.222 36.8411 113.391 36.6121 110.416 32.9511C107.441 29.2901 108.814 27.5731 108.814 27.5731C108.814 27.5731 110.073 27.4591 111.331 27.8031C112.59 28.1461 114.421 31.8071 116.938 33.4081C119.455 35.0111 122.772 32.6071 125.062 30.0911C127.35 27.5731 127.35 21.7381 127.35 21.7381C127.212 19.5051 127.073 17.2721 126.936 15.0371C126.846 13.5791 127.974 12.3161 129.435 12.2871C130.896 12.2591 132.545 12.3461 134.328 12.6431C139.86 13.5641 143.844 16.0321 145.999 17.6201C145.101 16.1971 137.703 8.93408 129.866 5.83508C126.991 4.69808 124.701 6.53208 123.296 8.25208C122.282 9.49208 121.894 11.1341 122.208 12.7051C123.478 19.0481 122.984 23.9951 121.743 25.8571C120.37 27.9171 115.107 27.2311 115.107 27.2311C111.675 24.7131 110.302 13.5011 110.302 9.15308C110.302 4.80608 107.705 1.38208 101.835 1.60208C95.9664 1.82208 94.0564 6.17908 94.0564 6.17908C94.0564 6.17908 96.3443 7.09408 99.0893 10.7551C101.835 14.4161 100.233 25.8571 100.233 25.8571L98.8604 25.3991C98.8604 25.3991 97.9454 27.2311 94.0564 27.2311C90.1654 27.2311 85.1313 23.1111 85.1313 16.9341C85.1313 10.7551 83.6204 6.22808 83.3014 6.17908C76.6644 5.14808 71.2874 12.1281 67.1684 13.3871C63.0494 14.6451 62.5924 16.9341 62.5924 16.9341C67.8544 18.1911 71.6304 14.6451 75.7494 11.8991C79.8684 9.15308 80.3253 10.8691 80.3253 10.8691C81.0123 15.6751 79.1824 18.5351 79.1824 18.5351C75.8634 17.9631 76.7794 15.6751 76.7794 15.6751C76.7794 15.6751 73.9194 16.1321 70.2574 19.3361C66.5964 22.5391 61.2194 22.7691 61.2194 22.7691C61.3334 26.3151 65.2243 25.2851 65.2243 25.2851L64.0794 27.5731C61.7914 27.1161 60.9903 28.8321 60.9903 28.8321C61.9053 31.1201 65.2243 30.3191 65.2243 30.3191L64.8803 31.6921C61.1043 33.9801 53.0963 49.9981 50.8083 53.8891C48.5193 57.7781 50.8083 58.3511 50.8083 58.3511Z" fill="#009949"></path><path fill-rule="evenodd" clip-rule="evenodd" d="M85.8174 43.534C86.7904 46.108 88.1054 45.536 88.1054 45.536C88.1054 45.536 89.2504 40.159 88.1054 36.727C86.9624 33.294 86.6184 32.837 86.6184 32.837C86.6184 32.837 84.2164 31.807 83.1864 33.98C82.1564 36.154 79.5244 44.507 79.7544 46.337C79.9824 48.168 79.9824 48.168 79.9824 48.168C79.9824 48.168 83.6814 47.123 84.1774 40.38C84.6734 33.638 85.8174 37.985 85.8174 37.985C85.8174 37.985 85.0404 41.476 85.8174 43.534Z" fill="#009949"></path><path fill-rule="evenodd" clip-rule="evenodd" d="M134.214 30.4339C136.045 29.2899 137.246 31.2339 137.246 31.2339C137.875 29.9769 136.273 28.1459 136.273 28.1459C136.273 28.1459 137.532 26.7729 139.592 28.6039C141.651 30.4339 143.265 30.3189 143.265 30.3189C142.133 29.2899 141.079 24.3699 141.079 24.3699C142.299 24.0259 143.52 23.6839 144.74 23.3399C142.055 18.5519 139.258 16.9259 137.135 16.3559C134.434 15.6299 129.752 15.7889 129.752 15.7889C129.658 16.7459 129.576 18.1549 129.694 19.8509C129.842 21.9519 130.209 23.2459 130.438 24.4839C130.763 26.2309 130.979 28.7519 130.438 32.0359C130.438 32.0359 132.384 31.5779 134.214 30.4339Z" fill="#009949"></path><path fill-rule="evenodd" clip-rule="evenodd" d="M142.337 54.69C142.337 54.69 144.396 53.889 141.536 48.969C138.676 44.049 137.403 41.189 136.781 37.527C136.159 33.866 132.956 35.239 132.956 35.239C132.956 35.239 133.985 49.312 142.337 54.69Z" fill="#009949"></path><path fill-rule="evenodd" clip-rule="evenodd" d="M141.536 35.468C141.536 35.468 140.85 46.566 147.829 52.172C154.809 57.778 155.381 58.351 155.381 58.351C155.381 58.351 155.151 55.49 151.033 48.74C146.914 41.989 144.626 36.955 141.536 35.468Z" fill="#009949"></path><path fill-rule="evenodd" clip-rule="evenodd" d="M102.865 66.474C104.238 66.245 104.238 57.893 104.238 57.893C104.238 57.893 101.606 58.236 99.891 56.177C98.174 54.117 96 54.003 95.543 55.49C95.085 56.978 90.509 65.33 97.03 69.105C97.03 69.105 99.318 67.504 101.378 69.105C101.378 69.105 101.492 66.703 102.865 66.474Z" fill="#009949"></path><path fill-rule="evenodd" clip-rule="evenodd" d="M121.972 62.3549C121.057 64.5289 122.888 66.8169 122.888 66.8169H125.062C125.062 66.8169 125.062 65.1009 127.12 65.4439C129.18 65.7869 131.011 64.9859 131.011 64.9859C131.011 64.9859 130.438 64.7579 128.822 62.9269C127.206 61.0969 124.79 60.3839 125.062 60.7529C126.319 62.4699 125.404 63.7849 125.404 63.7849L121.972 62.3549Z" fill="#009949"></path><path fill-rule="evenodd" clip-rule="evenodd" d="M114.307 82.4919C114.416 82.4549 114.348 82.3699 114.163 82.2729C114.18 82.4549 114.212 82.5229 114.307 82.4919Z" fill="#009949"></path><path fill-rule="evenodd" clip-rule="evenodd" d="M110.76 72.1941C110.76 72.1941 109.959 71.6221 109.844 75.5131C109.729 79.4021 108.472 81.1191 108.472 81.1191C108.472 81.1191 109.729 81.8061 111.561 81.8061C112.806 81.8061 113.771 82.0681 114.163 82.2731C114.121 81.7991 114.2 80.4721 113.62 77.5721C112.819 73.5671 110.76 72.1941 110.76 72.1941Z" fill="#009949"></path><path fill-rule="evenodd" clip-rule="evenodd" d="M102.865 78.83C102.865 78.83 105.268 79.06 106.183 77.333C107.099 75.606 106.183 72.165 106.183 72.165C106.183 72.165 105.153 72.881 102.865 73.567C100.577 74.254 101.835 78.841 101.835 78.841L102.865 78.83Z" fill="#009949"></path><path fill-rule="evenodd" clip-rule="evenodd" d="M95.8861 77.3329C94.7411 80.0889 93.5571 81.0039 93.5571 81.0039C93.5571 81.0039 95.8861 82.4919 97.9451 81.0039C100.005 79.5169 98.8971 78.1309 98.8971 78.1309V74.5979C98.6321 74.5979 97.0301 74.5759 95.8861 77.3329Z" fill="#009949"></path><path fill-rule="evenodd" clip-rule="evenodd" d="M31.3563 243.813C31.3533 243.817 40.8933 237.487 48.8413 234.771C46.2503 231.414 41.1893 229.122 35.3613 229.122C26.9083 229.122 20.0303 233.931 20.0303 239.843C20.0303 242.589 24.4063 247.419 31.3563 243.813Z" fill="#009949"></path><path fill-rule="evenodd" clip-rule="evenodd" d="M172.034 247.419C159.961 240.259 140.704 231.734 112.396 230.289L112.354 230.523C109.288 230.303 106.177 230.143 102.991 230.088C102.656 230.09 102.333 230.082 101.996 230.086C101.659 230.082 101.336 230.09 101.001 230.088C97.8153 230.143 94.7043 230.303 91.6383 230.523L91.5973 230.289C63.2883 231.734 44.0313 240.259 31.9583 247.419C26.8953 250.421 24.3983 248.269 24.4063 248.276L35.5803 261.888C38.3373 264.633 42.6563 264.994 45.8423 262.76C58.8413 253.644 78.5033 247.818 100.483 247.818C100.992 247.818 101.489 247.847 101.996 247.854C102.502 247.847 103 247.818 103.509 247.818C125.489 247.818 145.151 253.644 158.15 262.76C161.336 264.994 165.655 264.633 168.412 261.888L179.586 248.276C179.594 248.269 177.098 250.421 172.034 247.419Z" fill="#009949"></path><path fill-rule="evenodd" clip-rule="evenodd" d="M168.63 229.122C162.803 229.122 157.742 231.414 155.151 234.771C163.1 237.487 172.64 243.817 172.635 243.813C179.586 247.419 183.962 242.589 183.962 239.843C183.962 233.931 177.084 229.122 168.63 229.122Z" fill="#009949"></path><path fill-rule="evenodd" clip-rule="evenodd" d="M104.04 5.3199C104.04 5.8569 103.239 6.2929 102.251 6.2929C101.263 6.2929 100.462 5.8569 100.462 5.3199C100.462 4.7829 101.263 4.3479 102.251 4.3479C103.239 4.3479 104.04 4.7829 104.04 5.3199Z" fill="black"></path><path fill-rule="evenodd" clip-rule="evenodd" d="M121.325 116.559L121.202 116.578L121.325 116.559ZM108.208 212.087L95.8513 210.418L96.3753 146.334C91.7673 138.783 83.4583 127.129 74.6063 125.396C66.7113 123.852 43.3723 105.224 40.4683 103.079L47.0643 94.146C57.6633 101.973 63.7603 109.436 81.5463 116.384C87.0673 118.54 95.9583 126.959 101.658 132.284C110.13 125.396 112.603 121.089 117.769 120.076C121.519 118.84 144.063 105.613 159.09 95.191L165.309 103.187C149.442 109.547 129.558 125.302 123.621 128.693C121.331 129.702 114.558 138.444 108.45 145.483L108.208 212.087Z" fill="#00A3DA"></path><path fill-rule="evenodd" clip-rule="evenodd" d="M169.682 150.319C169.682 150.319 173.429 150.519 175.503 144.136C177.576 137.753 167.737 147.229 167.737 147.229L169.682 150.319Z" fill="#1A1919"></path><path fill-rule="evenodd" clip-rule="evenodd" d="M197.484 168.302C196.455 184.434 181.695 196.104 165.814 214.639C149.933 233.174 148.401 232.83 140.816 228.412C133.231 223.993 140.816 207.247 140.816 207.247C140.816 207.247 144.626 199.193 148.449 191.642C152.272 184.091 155.609 157.317 159.922 153.116C161.966 151.126 163.643 150.979 164.92 152.027C166.339 153.192 167.264 155.834 167.627 159.14C168.318 165.424 161.788 191.299 161.788 191.299C161.788 191.299 164.533 188.896 175.082 180.106C185.631 171.318 188.903 167.958 188.561 150.319C188.42 143.131 188.854 136.71 189.525 131.242C190.501 123.294 191.98 117.379 192.961 114.206C194.615 108.851 197.142 115.442 197.484 120.248C197.828 125.054 198.515 152.169 197.484 168.302ZM183.962 239.843C183.962 242.589 179.586 247.419 172.635 243.813C172.64 243.817 163.1 237.487 155.151 234.771C157.742 231.414 162.803 229.122 168.63 229.122C177.084 229.122 183.962 233.931 183.962 239.843ZM168.412 261.888C165.655 264.633 161.336 264.994 158.15 262.76C145.151 253.644 125.489 247.818 103.509 247.818C103 247.818 102.502 247.847 101.996 247.854C101.489 247.847 100.992 247.818 100.483 247.818C78.5032 247.818 58.8412 253.644 45.8422 262.76C42.6562 264.994 38.3372 264.633 35.5802 261.888L24.4062 248.276C24.3982 248.269 26.8952 250.421 31.9582 247.419C44.0312 240.259 63.2882 231.734 91.5972 230.289L91.6382 230.523C94.7042 230.303 97.8152 230.143 101.001 230.088C101.336 230.09 101.659 230.082 101.996 230.086C102.333 230.082 102.656 230.09 102.991 230.088C106.177 230.143 109.288 230.303 112.354 230.523L112.396 230.289C140.704 231.734 159.961 240.259 172.034 247.419C177.098 250.421 179.594 248.269 179.586 248.276L168.412 261.888ZM20.0302 239.843C20.0302 233.931 26.9082 229.122 35.3612 229.122C41.1892 229.122 46.2502 231.414 48.8412 234.771C40.8932 237.487 31.3532 243.817 31.3562 243.813C24.4062 247.419 20.0302 242.589 20.0302 239.843ZM5.51619 168.302C4.48519 152.169 5.17219 125.054 5.51619 120.248C5.85819 115.442 8.38519 108.851 10.0392 114.206C11.0202 117.379 12.4992 123.294 13.4752 131.242C14.1462 136.71 14.5802 143.131 14.4402 150.319C14.0972 167.958 17.3692 171.318 27.9182 180.106C38.4672 188.896 41.2122 191.299 41.2122 191.299C41.2122 191.299 34.6822 165.424 35.3732 159.14C35.7362 155.834 36.6612 153.192 38.0802 152.027C39.3572 150.979 41.0342 151.126 43.0782 153.116C47.3912 157.317 50.7282 184.091 54.5512 191.642C58.3742 199.193 62.1842 207.247 62.1842 207.247C62.1842 207.247 69.7692 223.993 62.1842 228.412C54.5992 232.83 53.0672 233.174 37.1862 214.639C21.3052 196.104 6.54519 184.434 5.51619 168.302ZM31.2412 155.362C23.1562 152.947 23.7242 144.817 24.6572 140.502C25.2712 141.145 25.9002 141.775 26.5522 142.387C28.9712 144.657 31.4112 146.337 33.8102 147.62L33.7452 147.628C32.6052 147.793 31.8072 148.052 31.6022 148.394C31.2482 148.982 31.1382 151.754 31.2412 155.362ZM21.9912 152.967C23.2702 157.084 28.0732 159.616 31.5342 160.945C31.9692 166.842 32.8192 173.144 34.0042 175.853C36.4072 181.345 26.7962 174.137 22.6782 166.929C18.7152 159.994 17.6142 150.495 17.5362 133.284C17.5332 132.604 17.5292 131.936 17.5292 131.231L17.5252 130.968C18.2642 132.249 19.0682 133.495 19.9222 134.712C19.3982 141.39 20.0372 146.676 21.9912 152.967ZM19.1722 86.61C25.3512 78.545 33.7282 67.218 49.7902 65.673C65.8532 64.129 74.2622 70.728 81.4702 78.841C88.6782 86.954 100.005 97.251 100.52 100.512C100.707 101.701 101.107 103.186 101.287 104.577C101.199 105.346 101.162 106.194 101.237 107.021C100.925 108.246 100.013 109.06 97.8952 108.921C92.6252 108.578 79.5822 106.004 77.3512 104.803C75.1202 103.601 74.0902 98.967 74.2622 95.878C74.4342 92.789 72.3742 85.987 65.1662 81.665C57.9582 77.343 52.2532 76.034 47.1462 78.841C46.3602 79.273 31.8722 84.551 28.6112 98.796C25.3512 113.04 25.6742 124.164 37.8792 131.918C50.0832 139.673 64.1362 129.858 64.1362 129.858L67.5682 131.746C67.5682 131.746 79.2382 141.186 78.8962 143.76C78.7202 145.078 78.8102 146.17 78.2742 146.992C77.0802 146.959 75.9362 147.345 74.9282 148.48C74.7142 148.511 74.5002 148.541 74.2622 148.565C70.0622 149 56.8272 150.891 48.3092 150.132C46.9612 148.498 42.7892 147.672 38.9342 147.474C34.6262 145.567 29.5982 142.598 25.2202 138.359C25.3422 137.974 25.4242 137.753 25.4242 137.753C25.4242 137.753 21.3362 127.982 20.2052 132.381C19.1462 130.801 18.2022 129.1 17.3992 127.274C16.9812 120.763 15.5552 115.546 13.7072 111.972C12.9032 101.866 14.9942 92.064 19.1722 86.61ZM47.8442 64.317C50.8432 63.397 52.2902 62.366 52.6902 62.069C54.1222 61.005 55.3422 59.652 56.2642 58.085L56.7572 57.248C74.3762 55.917 77.1222 51.913 77.1222 51.913C77.1222 51.913 79.1822 52.173 82.3852 50.048C85.5892 47.923 91.5382 46.624 91.5382 46.624C92.2252 54.349 97.7172 50.8 93.8262 53.949C89.9372 57.1 90.8522 70.234 90.8522 70.234L92.4532 69.777L92.6832 73.898L94.7412 74.064C94.7412 77.485 87.5782 80.355 86.1012 80.912C81.1002 75.925 75.8592 71.02 72.0302 68.247C62.0772 61.039 47.8442 64.317 47.8442 64.317C47.8442 64.317 68.7702 62.927 47.0392 64.551H47.0382C47.3242 64.473 47.5952 64.395 47.8442 64.317ZM84.1772 40.38C83.6812 47.123 79.9822 48.168 79.9822 48.168C79.9822 48.168 79.9822 48.168 79.7542 46.337C79.5242 44.507 82.1562 36.154 83.1862 33.98C84.2162 31.807 86.6182 32.837 86.6182 32.837C86.6182 32.837 86.9622 33.294 88.1052 36.727C89.2502 40.159 88.1052 45.536 88.1052 45.536C88.1052 45.536 86.7902 46.108 85.8172 43.534C85.0402 41.476 85.8172 37.985 85.8172 37.985C85.8172 37.985 84.6732 33.638 84.1772 40.38ZM50.8082 53.889C53.0962 49.998 61.1042 33.98 64.8802 31.692L65.2242 30.319C65.2242 30.319 61.9052 31.12 60.9902 28.832C60.9902 28.832 61.7912 27.116 64.0792 27.573L65.2242 25.285C65.2242 25.285 61.3332 26.315 61.2192 22.769C61.2192 22.769 66.5962 22.539 70.2572 19.336C73.9192 16.132 76.7792 15.675 76.7792 15.675C76.7792 15.675 75.8632 17.963 79.1822 18.535C79.1822 18.535 81.0122 15.675 80.3252 10.869C80.3252 10.869 79.8682 9.153 75.7492 11.899C71.6302 14.645 67.8542 18.191 62.5922 16.934C62.5922 16.934 63.0492 14.645 67.1682 13.387C71.2872 12.128 76.6642 5.148 83.3012 6.179C83.6202 6.228 85.1312 10.755 85.1312 16.934C85.1312 23.111 90.1652 27.231 94.0562 27.231C97.9452 27.231 98.8602 25.399 98.8602 25.399L100.233 25.857C100.233 25.857 101.835 14.416 99.0892 10.755C96.3442 7.094 94.0562 6.179 94.0562 6.179C94.0562 6.179 95.9662 1.822 101.835 1.602C107.705 1.382 110.302 4.806 110.302 9.153C110.302 13.501 111.675 24.713 115.107 27.231C115.107 27.231 120.37 27.917 121.743 25.857C122.984 23.995 123.478 19.048 122.208 12.705C121.894 11.134 122.282 9.492 123.296 8.252C124.701 6.532 126.991 4.698 129.866 5.835C137.703 8.934 145.101 16.197 145.999 17.62C143.844 16.032 139.86 13.564 134.328 12.643C132.545 12.346 130.896 12.259 129.435 12.287C127.974 12.316 126.846 13.579 126.936 15.037C127.073 17.272 127.212 19.505 127.35 21.738C127.35 21.738 127.35 27.573 125.062 30.091C122.772 32.607 119.455 35.011 116.938 33.408C114.421 31.807 112.59 28.146 111.331 27.803C110.073 27.459 108.814 27.573 108.814 27.573C108.814 27.573 107.441 29.29 110.416 32.951C113.391 36.612 115.222 36.841 115.222 36.841C115.222 36.841 121.743 35.697 124.832 35.697C127.921 35.697 129.294 36.269 129.294 36.269C129.294 36.269 135.015 47.71 132.727 51.485C132.727 51.485 127.692 46.223 127.12 40.273C127.12 40.273 125.176 38.1 124.718 40.96C124.26 43.82 124.604 45.536 124.604 45.536C124.604 45.536 123.002 46.795 122.086 44.277C121.171 41.761 121.057 40.846 120.256 40.388C119.455 39.93 118.997 42.587 118.997 42.587C118.997 42.587 116.938 40.846 116.022 40.502C115.107 40.159 115.222 40.846 115.222 40.846C115.222 40.846 116.709 46.223 115.908 47.94C115.107 49.655 114.878 49.541 112.133 46.795C109.387 44.049 110.76 47.596 110.76 47.596C110.76 47.596 112.012 52.516 113.273 55.49C114.535 58.465 114.535 58.465 114.535 58.465C114.535 58.465 116.366 55.032 116.366 55.49C116.366 55.948 117.396 64.186 115.107 66.245C112.819 68.305 109.959 67.046 109.959 67.046C109.959 67.046 108.128 60.066 109.729 55.948C109.729 55.948 104.238 55.032 99.7752 50.8C95.3132 46.566 90.8522 45.422 90.6232 31.12L89.4792 30.319L89.1362 28.26C89.1362 28.26 85.4382 29.175 83.2822 28.146C81.1272 27.116 79.9822 25.399 80.2112 24.599C80.4402 23.798 74.7202 25.285 74.7202 25.285C74.7202 25.285 73.3472 28.031 74.7202 28.604C76.0932 29.175 79.0672 28.374 79.7542 29.747C80.4402 31.12 80.7982 45.421 73.2322 50.8C73.2322 50.8 71.1732 50.685 73.2322 47.253C75.2912 43.82 79.0672 36.154 77.5802 32.951C77.3752 32.51 77.2302 32.178 77.1272 31.921H74.8342L73.3472 33.752C73.3472 33.752 71.9742 42.79 68.0832 47.824C64.1932 52.858 62.7062 53.66 62.7062 53.66C62.7062 53.66 59.7312 51.485 62.7062 48.626C65.6812 45.766 71.6302 37.642 71.1732 32.265L70.7152 30.663C70.7152 30.663 68.5412 29.977 66.7112 33.752C64.8802 37.527 54.6972 55.148 53.3242 56.635C51.9512 58.122 50.8082 58.351 50.8082 58.351C50.8082 58.351 48.5192 57.778 50.8082 53.889ZM151.033 48.74C155.151 55.49 155.381 58.351 155.381 58.351C155.381 58.351 154.809 57.778 147.829 52.172C140.85 46.566 141.536 35.468 141.536 35.468C144.626 36.955 146.914 41.989 151.033 48.74ZM136.781 37.527C137.403 41.189 138.676 44.049 141.536 48.969C144.396 53.889 142.337 54.69 142.337 54.69C133.985 49.312 132.956 35.239 132.956 35.239C132.956 35.239 136.159 33.866 136.781 37.527ZM130.438 24.484C130.209 23.246 129.842 21.952 129.694 19.851C129.576 18.155 129.658 16.746 129.752 15.789C129.752 15.789 134.434 15.63 137.135 16.356C139.258 16.926 142.055 18.552 144.74 23.34C143.52 23.684 142.299 24.026 141.079 24.37C141.079 24.37 142.133 29.29 143.265 30.319C143.265 30.319 141.651 30.434 139.592 28.604C137.532 26.773 136.273 28.146 136.273 28.146C136.273 28.146 137.875 29.977 137.246 31.234C137.246 31.234 136.045 29.29 134.214 30.434C132.384 31.578 130.438 32.036 130.438 32.036C130.979 28.752 130.763 26.231 130.438 24.484ZM123.116 69.623C126.777 69.911 128.607 66.818 128.607 66.818C132.956 66.818 135.473 64.94 135.473 64.94C135.473 64.94 121.057 55.376 119.684 51.913C118.311 48.451 124.26 49.626 124.26 49.626L124.946 51.46L129.065 52.998L129.98 54.21L136.846 54.612L144.396 63.604L144.507 63.601L144.608 63.777C140.501 64.208 135.937 65.418 132.028 68.247C128.23 70.997 123.043 75.847 118.078 80.792C118.059 80.775 116.475 79.374 115.564 74.796C114.649 70.189 116.022 71.394 118.769 71.259C121.515 71.124 123.116 69.623 123.116 69.623ZM125.062 60.753C124.79 60.384 127.206 61.097 128.822 62.927C130.438 64.758 131.011 64.986 131.011 64.986C131.011 64.986 129.18 65.787 127.12 65.444C125.062 65.101 125.062 66.817 125.062 66.817H122.888C122.888 66.817 121.057 64.529 121.972 62.355L125.404 63.785C125.404 63.785 126.319 62.47 125.062 60.753ZM129.847 151.837C133.702 151.879 138.483 152.05 142.717 152.055C139.834 155.817 137.176 159.729 134.727 163.786C132.805 158.894 130.979 154.512 129.847 151.837ZM108.472 81.119C108.472 81.119 109.729 79.402 109.844 75.513C109.959 71.622 110.76 72.194 110.76 72.194C110.76 72.194 112.819 73.567 113.62 77.572C114.2 80.472 114.121 81.799 114.163 82.273C114.348 82.37 114.416 82.455 114.307 82.492C114.212 82.523 114.18 82.455 114.163 82.273C113.771 82.068 112.806 81.806 111.561 81.806C109.729 81.806 108.472 81.119 108.472 81.119ZM113.765 85.162C107.553 91.556 102.569 97.079 102.569 97.079L102.029 100.486L101.49 97.079C101.49 97.079 95.8352 90.812 89.0632 83.901L90.1652 84.88L113.765 85.162ZM95.8862 77.333C97.0302 74.576 98.6322 74.598 98.8972 74.598V78.131C98.8972 78.131 100.005 79.517 97.9452 81.004C95.8862 82.492 93.5572 81.004 93.5572 81.004C93.5572 81.004 94.7412 80.089 95.8862 77.333ZM106.183 72.165C106.183 72.165 107.099 75.606 106.183 77.333C105.268 79.06 102.865 78.83 102.865 78.83L101.835 78.841C101.835 78.841 100.577 74.254 102.865 73.567C105.153 72.881 106.183 72.165 106.183 72.165ZM102.865 66.474C101.492 66.703 101.378 69.105 101.378 69.105C99.3182 67.504 97.0302 69.105 97.0302 69.105C90.5092 65.33 95.0852 56.978 95.5432 55.49C96.0002 54.003 98.1742 54.117 99.8912 56.177C101.606 58.236 104.238 57.893 104.238 57.893C104.238 57.893 104.238 66.245 102.865 66.474ZM73.9192 106.347C78.0372 109.436 93.4832 111.152 99.1942 110.98C100.584 110.938 101.472 110.374 102.029 109.551C102.588 110.374 103.475 110.938 104.864 110.98C110.576 111.152 126.021 109.436 130.141 106.347C134.26 103.258 130.827 97.251 131.514 94.162C132.2 91.072 140.609 80.775 148.161 80.433C155.712 80.089 169.27 85.581 173.046 98.109C176.821 110.638 175.791 123.509 166.181 128.829C156.57 134.149 147.475 131.231 145.758 128.829C144.042 126.427 136.834 126.598 134.088 130.202C131.342 133.806 121.731 140.156 121.731 143.932C121.731 144.124 121.733 144.318 121.735 144.513C119.748 143.571 117.352 143.18 116.176 145.834C113.968 150.821 109.824 165.138 110.929 169.956C112.032 174.774 119.106 173.302 120.658 175.805C131.04 192.551 120.479 206.129 109.772 210.01C109.642 207.416 108.6 186.383 108.756 182.603C108.925 178.549 109.796 146.56 109.806 146.237C109.822 145.639 110.035 145.083 110.421 144.633C118.154 135.588 123.218 129.707 123.563 129.343C123.938 129.091 125.606 128.664 126.71 128.383C127.764 128.113 128.854 127.834 129.649 127.545C130.751 127.144 134.285 124.534 142.315 118.446C145.992 115.658 149.793 112.775 150.824 112.158C153.48 110.563 164.827 104.428 165.814 104.052L165.392 102.747L165.065 101.413C163.976 101.68 151.019 108.839 149.411 109.804C148.253 110.498 144.733 113.167 140.657 116.258C136.309 119.555 129.736 124.537 128.711 124.965C128.043 125.208 127.02 125.469 126.03 125.721C123.695 126.319 122.342 126.688 121.688 127.344C121.147 127.884 114.128 136.073 108.335 142.847C107.547 143.768 107.095 144.943 107.06 146.161C107.052 146.484 106.181 178.455 106.013 182.488C105.84 186.623 106.994 209.448 107.042 210.418L108.81 210.328C106.565 211.019 104.343 211.284 102.333 211.043C100.433 210.815 98.5772 210.462 96.7832 210.009H96.9152C96.9462 200.112 97.1362 173.803 97.6372 170.941C98.1802 167.835 97.8552 153.128 97.6902 146.948C97.6612 145.882 97.3192 144.858 96.6982 143.985C89.3432 133.679 84.6982 128.142 82.8932 127.528C82.2972 127.326 81.6882 127.143 81.0502 126.949C79.0012 126.33 76.6812 125.629 73.3672 123.844C71.5972 122.891 65.8752 119.002 59.8172 114.887C47.9062 106.791 40.5412 101.845 38.7102 101.411L38.0712 104.082C39.6782 104.52 50.8692 112.124 58.2742 117.157C64.6582 121.495 70.1702 125.241 72.0672 126.263C75.6232 128.178 78.1902 128.954 80.2552 129.577C80.8632 129.761 81.4412 129.937 81.9872 130.12C83.0162 130.587 87.3582 135.624 94.4622 145.578C94.7642 146.003 94.9322 146.502 94.9442 147.021C95.2072 156.824 95.3422 168.13 94.9322 170.467C94.3312 173.895 94.1912 204 94.1722 209.257C86.0102 206.563 79.7872 201.294 79.0332 193.287C78.0432 182.762 83.7792 175.825 86.4162 175.221C89.0532 174.616 91.5142 168.175 89.4812 164.375C87.4502 160.575 85.5952 149.658 82.4262 148.223C82.2582 148.146 82.0882 148.07 81.9172 147.996C82.2782 146.741 82.3282 145.314 82.3282 143.932C82.3282 140.156 72.7172 133.806 69.9722 130.202C67.2262 126.598 60.0182 126.427 58.3012 128.829C56.5852 131.231 47.4892 134.149 37.8792 128.829C28.2682 123.509 27.2382 110.638 31.0142 98.109C34.7892 85.581 48.3482 80.089 55.8982 80.433C63.4502 80.775 71.8592 91.072 72.5462 94.162C73.2322 97.251 69.8002 103.258 73.9192 106.347ZM136.341 206.77C129.238 220.391 116.705 223.494 107.702 225.892C98.7002 228.289 83.3622 223.056 73.6262 212.787C63.8902 202.52 63.1892 187.365 64.0132 179.917C64.3862 176.553 66.3382 171.716 68.5692 167.034C69.4902 166.727 70.1522 165.883 69.7032 164.716C72.1002 159.919 74.5672 155.585 75.6222 153.596C76.0352 152.816 76.4122 152.227 76.7682 151.784C78.1152 151.678 79.1342 151.342 79.9082 150.843C80.3432 150.986 80.8072 151.169 81.3292 151.324C83.6142 151.999 87.3172 165.913 87.3172 165.913L87.6612 169.667C87.6612 169.667 74.3452 178.366 76.4412 192.112C78.5372 205.857 87.6012 211.387 100.889 212.907C123.517 215.497 128.197 194.125 127.176 186.104C126.153 178.085 122.492 174.657 119.838 173.634C117.184 172.611 113.667 169.938 113.465 167.507C113.264 165.076 115.817 152.56 117.435 147.768C118.373 144.985 120.062 145.163 121.812 146.129C122.071 149.009 123.18 151.569 127.611 151.798C130.173 156.832 133.556 166.564 136.741 173.737C140.021 181.122 142.24 188.811 139.691 198.302C138.427 201.171 137.386 203.862 136.535 206.369C136.467 206.504 136.411 206.634 136.341 206.77ZM133.438 229.306C127.18 228.226 120.622 227.493 113.825 227.119C121.884 225.101 129.686 220.556 134.745 212.387C132.639 220.686 132.896 226.813 133.438 229.306ZM61.3382 152.053C65.1712 152.049 69.4472 151.91 73.0872 151.852C71.7832 154.978 70.0532 158.843 68.5422 162.455C67.4612 160.759 66.1202 159.422 64.7502 157.715C63.3242 155.938 62.7752 153.757 61.3382 152.053ZM57.4842 154.026C59.3112 155.485 59.8112 157.819 61.1062 159.687C62.6202 161.868 64.7042 163.212 65.7252 165.79C65.9442 166.344 66.3232 166.709 66.7622 166.926C66.3962 167.905 66.0632 168.843 65.8142 169.662C64.3222 174.564 58.8082 184.301 63.5622 198.15C68.3142 212 79.0232 222.971 91.9482 226.849C92.1242 226.901 92.3082 226.949 92.4872 227C84.5382 227.337 76.8992 228.157 69.6702 229.447C70.7902 227.028 71.5832 211.086 57.0012 185.976C57.0012 185.976 49.5512 156.986 48.8132 151.56C51.1732 151.693 53.1942 151.681 54.6972 151.826C55.3762 151.892 56.1422 151.937 56.9442 151.972C56.6392 152.632 56.7172 153.414 57.4842 154.026ZM142.22 186.116C141.22 181.404 138.78 174.378 136.244 167.708C136.814 167.663 137.37 167.375 137.75 166.734C140.387 162.285 143.28 158.017 146.435 153.919C146.971 153.222 146.928 152.533 146.582 151.996C147.592 151.96 148.532 151.906 149.362 151.826C150.634 151.703 152.276 151.695 154.181 151.615C153.396 157.192 145.999 185.976 145.999 185.976C144.766 188.099 143.657 190.146 142.639 192.131C142.749 190.172 142.651 188.149 142.22 186.116ZM171.466 160.945C174.927 159.616 179.73 157.084 181.009 152.967C182.826 147.114 183.497 142.123 183.162 136.082C183.982 134.993 184.74 133.865 185.466 132.719C185.465 132.905 185.464 133.097 185.464 133.284C185.386 150.495 184.285 159.994 180.322 166.929C176.204 174.137 166.593 181.345 168.996 175.853C170.181 173.144 171.031 166.842 171.466 160.945ZM171.398 148.394C171.241 148.131 170.73 147.919 169.989 147.76C172.471 146.46 175.001 144.739 177.508 142.387C177.855 142.061 178.182 141.717 178.519 141.382C179.314 145.843 179.32 153.104 171.759 155.362C171.862 151.754 171.752 148.982 171.398 148.394ZM184.887 86.61C188.789 91.705 190.873 100.591 190.478 109.975C187.834 113.795 185.713 120.635 185.492 129.668C184.736 131.064 183.907 132.391 182.999 133.627C182.31 126.436 177.576 137.753 177.576 137.753C177.576 137.753 177.727 138.153 177.923 138.831C177.952 138.93 177.983 139.053 178.014 139.163C173.869 142.955 169.232 145.646 165.217 147.432C161.015 147.515 156.019 148.363 154.627 150.224C146.11 150.735 133.815 148.98 129.798 148.565C128.408 148.422 127.472 148.181 126.819 147.857L126.14 147.405C125.211 146.552 125.371 145.313 125.164 143.76C124.82 141.186 136.49 131.746 136.49 131.746L139.923 129.858C139.923 129.858 153.976 139.673 166.181 131.918C178.386 124.164 178.709 113.04 175.448 98.796C172.188 84.551 157.699 79.273 156.913 78.841C151.807 76.034 146.102 77.343 138.894 81.665C131.686 85.987 129.626 92.789 129.798 95.878C129.969 98.967 128.939 103.601 126.708 104.803C124.478 106.004 111.435 108.578 106.165 108.921C104.046 109.06 103.134 108.246 102.822 107.021C102.896 106.194 102.859 105.346 102.771 104.577C102.952 103.186 103.352 101.701 103.54 100.512C104.055 97.251 115.382 86.954 122.59 78.841C129.798 70.728 138.207 64.129 154.269 65.673C170.331 67.218 178.709 78.545 184.887 86.61ZM198.171 107.884C196.629 106.229 194.771 106.139 192.955 107.382C192.949 105.603 192.839 103.824 192.61 102.057C191.104 90.412 183.145 74.536 168.953 67.761C168.931 67.639 168.882 67.515 168.765 67.398C168.545 67.181 168.378 66.962 168.225 66.694C168.155 66.574 168.064 66.5 167.967 66.446L167.904 66.304C167.701 66.01 167.446 65.786 167.16 65.601C166.998 65.423 166.828 65.253 166.641 65.1C167.243 65.228 167.843 65.353 168.48 65.501C164.476 61.781 160.024 57.104 155.638 51.349C152.171 46.801 149.382 42.417 147.143 38.442C149.202 39.587 155.381 39.587 155.381 39.587C151.72 36.841 150.117 29.747 150.117 29.747C152.635 30.892 155.381 30.205 155.381 30.205C152.863 27.459 151.49 22.425 151.49 22.425C154.236 22.654 154.236 21.281 154.236 21.281C152.406 20.137 139.134 8.238 131.354 4.348C126.428 1.885 123.016 5.178 121.175 7.925C120.121 9.499 119.833 11.451 120.421 13.251C121.639 16.981 123.269 24.004 118.769 25.171C112.59 26.773 111.675 15.789 111.903 9.84C112.133 3.89 108.472 0 101.835 0C95.1992 0 90.3942 8.009 90.3942 8.009C90.3942 8.009 94.9712 8.695 96.3442 9.61C97.7172 10.526 100.92 17.849 97.4872 22.425C94.0562 27.002 89.9372 22.654 88.1052 20.595C86.2752 18.535 87.8772 6.407 85.5892 3.89C83.3012 1.373 69.8002 7.322 63.6212 12.585C57.4432 17.849 50.1212 18.764 50.1212 18.764C50.1212 21.738 54.0112 21.51 54.0112 21.51C53.0962 24.713 50.3502 28.374 50.3502 28.374L54.0112 29.519C54.2392 33.638 50.5782 36.841 50.5782 36.841H54.6972C53.8692 40.157 52.6392 43.96 50.7792 48.009C47.1712 55.868 42.5802 61.635 38.9082 65.501C39.7842 65.524 40.6072 65.503 41.3932 65.457C23.2302 69.971 13.1662 88.786 11.4492 102.057C11.1822 104.124 11.0862 106.204 11.1222 108.284C8.98319 106.162 6.67819 105.899 4.82919 107.884C0.0231872 113.04 -1.34981 171.318 4.82919 180.106C10.2332 187.795 31.8472 216.137 40.8852 225.615C39.1352 225.218 37.2812 225.003 35.3612 225.003C24.6372 225.003 15.9112 231.66 15.9112 239.843C15.9112 240.21 15.9432 240.57 15.9792 240.931L15.9782 240.935L15.9802 240.939C16.1662 242.857 16.8272 244.674 17.8852 246.319L17.8902 246.332L17.9002 246.347C18.3942 247.109 18.9742 247.833 19.6232 248.516L32.1232 264.258C36.5142 268.629 43.3982 269.243 48.4922 265.719C59.3772 258.249 75.4262 253.176 93.6112 252.143L93.5962 252.355C96.3432 252.128 99.1512 252.008 101.996 251.971C104.841 252.008 107.648 252.128 110.396 252.355L110.381 252.143C128.566 253.176 144.615 258.249 155.5 265.719C160.594 269.243 167.479 268.629 171.869 264.258L184.368 248.516C185.019 247.833 185.599 247.109 186.091 246.347L186.103 246.332L186.107 246.319C187.165 244.674 187.826 242.857 188.013 240.939L188.015 240.935L188.014 240.931C188.048 240.57 188.081 240.21 188.081 239.843C188.081 231.66 179.355 225.003 168.63 225.003C166.219 225.003 163.911 225.341 161.782 225.957C170.604 216.856 192.697 187.894 198.171 180.106C204.35 171.318 202.977 113.04 198.171 107.884Z" fill="#1A1919"></path><path fill-rule="evenodd" clip-rule="evenodd" d="M57.9581 144.79C78.2091 144.446 67.9121 140.499 67.9121 140.499C67.9121 140.499 63.2781 134.836 61.5621 135.522C59.8461 136.209 61.0471 138.783 55.2121 139.126C49.3771 139.47 36.3661 143.437 27.0661 128.657C17.7671 113.878 20.7171 111.839 20.8881 109.779C21.0601 107.72 19.8581 100.512 19.8581 100.512C19.8581 101.026 14.0231 115.614 21.7461 126.427C29.4691 137.238 37.7071 145.133 57.9581 144.79Z" fill="#1A1919"></path><path fill-rule="evenodd" clip-rule="evenodd" d="M138.722 72.1649C129.797 74.6129 115.038 97.7659 112.292 99.1389C109.546 100.512 108.345 101.885 109.546 102.571C110.748 103.258 116.832 101.713 119.882 101.713C122.933 101.713 124.992 100.684 125.164 99.1389C125.335 97.5949 124.134 90.8999 127.909 86.2679C131.686 81.6339 137.691 72.1649 150.906 72.1649C154.053 72.1649 157.6 72.1649 157.6 72.1649C157.6 72.1649 149.877 69.1049 138.722 72.1649Z" fill="#1A1919"></path><path fill-rule="evenodd" clip-rule="evenodd" d="M76.149 86.2679C79.925 90.8999 78.724 97.5949 78.896 99.1389C79.067 100.684 81.127 101.713 84.177 101.713C87.228 101.713 93.312 103.258 94.513 102.571C95.714 101.885 94.513 100.512 91.767 99.1389C89.021 97.7659 74.262 74.6129 65.338 72.1649C54.183 69.1049 46.459 72.1649 46.459 72.1649C46.459 72.1649 50.007 72.1649 53.152 72.1649C66.367 72.1649 72.374 81.6339 76.149 86.2679Z" fill="#1A1919"></path><path fill-rule="evenodd" clip-rule="evenodd" d="M176.993 128.657C167.692 143.437 154.683 139.47 148.847 139.126C143.012 138.783 144.214 136.209 142.497 135.522C140.781 134.836 136.147 140.499 136.147 140.499C136.147 140.499 125.851 144.446 146.102 144.79C166.353 145.133 174.59 137.238 182.313 126.427C190.036 115.614 184.201 101.026 184.201 100.512C184.201 100.512 182.999 107.72 183.171 109.779C183.343 111.839 186.293 113.878 176.993 128.657Z" fill="#1A1919"></path><path fill-rule="evenodd" clip-rule="evenodd" d="M75.27 202.916C66.228 189.068 74.261 179.068 76.657 174.037C79.055 169.006 80.781 171.048 81.978 169.791C83.174 168.533 80.096 162.28 80.096 162.28C80.096 162.28 80.505 151.67 72.898 169.454C65.289 187.237 68.937 197.527 75.219 208.472C81.501 219.415 95.853 219.802 96.284 219.997C96.284 219.997 90.669 216.193 88.879 215.562C87.089 214.931 84.311 216.765 75.27 202.916Z" fill="#1A1919"></path><path fill-rule="evenodd" clip-rule="evenodd" d="M121.541 153.174C120.53 153.976 119.628 159.945 118.525 162.644C117.423 165.342 117.542 167.556 118.776 168.295C120.011 169.034 126.063 170.517 128.586 175.619C131.109 180.722 136.885 189.637 132.108 201.326C130.971 204.109 129.688 207.247 129.688 207.247C129.688 207.247 135.048 201.579 136.513 190.547C137.685 181.722 123.589 159.859 123.429 156.908C123.27 153.957 122.552 152.372 121.541 153.174Z" fill="#1A1919"></path><path fill-rule="evenodd" clip-rule="evenodd" d="M46.1582 95.386C46.9402 96.042 65.4512 111.476 76.3612 115.495C85.6472 118.915 98.0152 130.48 100.397 132.763C100.856 133.204 101.448 133.425 102.041 133.425C102.623 133.425 103.205 133.212 103.662 132.785C110.684 126.228 114.665 122.828 115.604 122.278C117.661 121.962 124.308 119.129 127.066 117.479C130.207 115.604 157.913 98.042 159.09 97.295L157.62 94.976C157.332 95.158 128.767 113.266 125.659 115.122C122.662 116.912 116.243 119.45 115.283 119.562C114.591 119.562 113.81 119.562 102.045 130.54C98.2952 126.971 86.6402 116.354 77.3112 112.918C66.8482 109.063 48.1072 93.438 47.9202 93.281L46.1582 95.386Z" fill="#1A1919"></path><path fill-rule="evenodd" clip-rule="evenodd" d="M45.164 253.855C45.228 254.192 45.232 254.469 45.181 254.681C45.092 255.071 44.837 255.379 44.413 255.605C44.001 255.826 43.58 255.852 43.149 255.683C42.72 255.514 42.338 255.114 42.009 254.48C41.681 253.848 41.555 253.285 41.638 252.796C41.72 252.307 41.989 251.938 42.443 251.693C42.891 251.454 43.29 251.399 43.64 251.529C43.835 251.603 44.041 251.755 44.257 251.986C44.765 251.722 45.02 251.591 45.53 251.332C45.34 250.982 45.03 250.695 44.599 250.475C43.819 250.082 42.91 250.156 41.885 250.705C41.118 251.116 40.609 251.696 40.362 252.433C40.077 253.28 40.202 254.193 40.725 255.175C41.208 256.081 41.83 256.658 42.579 256.913C43.328 257.167 44.114 257.067 44.948 256.621C45.621 256.261 46.079 255.777 46.324 255.161C46.57 254.545 46.602 253.896 46.411 253.215C45.911 253.468 45.662 253.596 45.164 253.855Z" fill="#1A1919"></path><path fill-rule="evenodd" clip-rule="evenodd" d="M49.1223 253.019C48.8533 252.421 48.7183 252.122 48.4473 251.525C49.6303 250.955 50.2243 250.679 51.4173 250.143C51.2443 249.734 51.1583 249.53 50.9853 249.122C49.7833 249.663 49.1843 249.942 47.9913 250.517C47.7693 250.023 47.6573 249.777 47.4353 249.284C48.7463 248.652 49.4063 248.346 50.7303 247.754C50.5563 247.337 50.4683 247.129 50.2933 246.712C48.4413 247.54 47.5233 247.973 45.6953 248.877C46.7703 251.188 47.3063 252.344 48.3803 254.654C50.1793 253.765 51.0853 253.339 52.9083 252.526C52.7313 252.104 52.6433 251.892 52.4663 251.469C51.1223 252.067 50.4533 252.378 49.1223 253.019Z" fill="#1A1919"></path><path fill-rule="evenodd" clip-rule="evenodd" d="M55.3761 244.568C55.9971 246.237 56.3081 247.071 56.9301 248.739C55.3261 247.461 54.5091 246.833 52.8461 245.604C52.2881 245.839 52.0111 245.958 51.4551 246.199C52.4211 248.561 52.9031 249.742 53.8691 252.104C54.3391 251.898 54.5741 251.798 55.0451 251.599C54.3771 249.915 54.0431 249.074 53.3741 247.391C55.0631 248.643 55.8921 249.281 57.5181 250.584C58.0261 250.382 58.2811 250.282 58.7921 250.085C57.9241 247.684 57.4901 246.483 56.6221 244.081C56.1231 244.273 55.8741 244.371 55.3761 244.568Z" fill="#1A1919"></path><path fill-rule="evenodd" clip-rule="evenodd" d="M62.5782 241.956C60.4742 242.649 59.4272 243.02 57.3462 243.806C57.4972 244.232 57.5722 244.445 57.7242 244.872C58.4892 244.583 58.8732 244.441 59.6422 244.165C60.3142 246.156 60.6502 247.151 61.3232 249.143C61.8412 248.957 62.1002 248.865 62.6182 248.686C61.9662 246.687 61.6412 245.688 60.9882 243.688C61.7572 243.422 62.1422 243.292 62.9122 243.038C62.7782 242.605 62.7122 242.389 62.5782 241.956Z" fill="#1A1919"></path><path fill-rule="evenodd" clip-rule="evenodd" d="M67.5753 243.257C67.4513 243.365 67.2463 243.462 66.9603 243.547C66.3843 243.718 66.0973 243.805 65.5223 243.982C65.3303 243.323 65.2343 242.993 65.0423 242.333C65.6393 242.148 65.9383 242.058 66.5353 241.881C66.8143 241.798 67.0333 241.773 67.1923 241.806C67.4763 241.862 67.6673 242.077 67.7683 242.451C67.8613 242.798 67.7973 243.066 67.5753 243.257ZM69.9523 245.851C69.9033 245.756 69.8413 245.567 69.7683 245.285C69.7243 245.119 69.7023 245.035 69.6593 244.869C69.5463 244.436 69.4003 244.13 69.2233 243.953C69.0453 243.775 68.7943 243.672 68.4673 243.641C68.7893 243.423 68.9903 243.151 69.0693 242.825C69.1503 242.498 69.1533 242.188 69.0763 241.894C69.0143 241.65 68.9183 241.444 68.7873 241.275C68.6573 241.108 68.5033 240.965 68.3243 240.847C68.1073 240.703 67.8643 240.617 67.5973 240.588C67.3303 240.559 66.9713 240.604 66.5213 240.728C65.2713 241.095 64.6463 241.287 63.4023 241.688C64.1423 244.135 64.5113 245.358 65.2523 247.805C65.7583 247.642 66.0113 247.562 66.5193 247.404C66.2383 246.441 66.0983 245.96 65.8173 244.998C66.3343 244.838 66.5933 244.759 67.1113 244.604C67.4813 244.494 67.7513 244.486 67.9223 244.578C68.0923 244.67 68.2323 244.912 68.3463 245.305C68.4113 245.532 68.4443 245.646 68.5103 245.875C68.5623 246.057 68.6283 246.229 68.7093 246.392C68.7483 246.47 68.8073 246.571 68.8843 246.697C69.4603 246.531 69.7483 246.45 70.3253 246.292L70.2853 246.137C70.1393 246.095 70.0283 245.999 69.9523 245.851Z" fill="#1A1919"></path><path fill-rule="evenodd" clip-rule="evenodd" d="M72.6343 243.19C72.7373 242.127 72.7922 241.595 72.9082 240.53C73.4622 241.434 73.7353 241.886 74.2763 242.793C73.6193 242.947 73.2903 243.026 72.6343 243.19ZM71.8193 239.292C71.4583 242.018 71.3002 243.38 71.0312 246.101C71.5792 245.953 71.8543 245.881 72.4023 245.741C72.4493 245.187 72.4743 244.909 72.5243 244.354C73.4583 244.118 73.9273 244.005 74.8643 243.788C75.1453 244.263 75.2842 244.501 75.5612 244.978C76.1322 244.848 76.4182 244.784 76.9902 244.661C75.5892 242.345 74.8672 241.194 73.3812 238.915C72.7562 239.062 72.4433 239.137 71.8193 239.292Z" fill="#1A1919"></path><path fill-rule="evenodd" clip-rule="evenodd" d="M78.9094 243.092C78.5274 241.026 78.3374 239.994 77.9554 237.929C77.4004 238.038 77.1224 238.094 76.5674 238.209C77.0594 240.722 77.3044 241.979 77.7964 244.49C79.5874 244.118 80.4864 243.948 82.2874 243.644C82.2154 243.189 82.1794 242.962 82.1064 242.507C80.8254 242.724 80.1864 242.841 78.9094 243.092Z" fill="#1A1919"></path><path fill-rule="evenodd" clip-rule="evenodd" d="M88.8472 241.483C88.6982 241.576 88.4852 241.639 88.2062 241.672C87.5802 241.745 87.2672 241.784 86.6422 241.866C86.5592 241.188 86.5172 240.85 86.4342 240.172C87.0752 240.088 87.3962 240.048 88.0392 239.972C88.3202 239.941 88.5422 239.953 88.7032 240.005C88.9942 240.098 89.1552 240.311 89.1892 240.642C89.2292 241.034 89.1152 241.313 88.8472 241.483ZM86.1312 237.718C86.7102 237.642 86.9992 237.605 87.5782 237.536C87.8962 237.499 88.1702 237.497 88.3742 237.546C88.6172 237.604 88.7612 237.797 88.7912 238.093C88.8192 238.361 88.7492 238.558 88.5822 238.683C88.4152 238.807 88.1882 238.887 87.9022 238.921C87.2632 238.996 86.9422 239.036 86.3042 239.119C86.2342 238.559 86.2002 238.278 86.1312 237.718ZM89.4172 239.197C89.6252 239.063 89.7822 238.926 89.8822 238.781C90.0632 238.524 90.1362 238.202 90.1002 237.812C90.0642 237.435 89.9342 237.119 89.7022 236.869C89.3202 236.463 88.7172 236.296 87.8972 236.379C86.6012 236.529 85.9532 236.612 84.6592 236.796C84.9982 239.335 85.1672 240.604 85.5052 243.144C86.6542 242.98 87.2292 242.906 88.3812 242.771C88.7062 242.732 89.0042 242.67 89.2762 242.582C89.5472 242.493 89.7772 242.361 89.9682 242.185C90.1362 242.03 90.2712 241.848 90.3752 241.636C90.5382 241.317 90.6032 240.97 90.5682 240.592C90.5342 240.225 90.4222 239.92 90.2292 239.681C90.0362 239.441 89.7642 239.28 89.4172 239.197Z" fill="#1A1919"></path><path fill-rule="evenodd" clip-rule="evenodd" d="M93.4744 239.854C93.7434 238.822 93.8814 238.308 94.1634 237.277C94.5634 238.262 94.7604 238.755 95.1474 239.742C94.4784 239.782 94.1434 239.805 93.4744 239.854ZM93.2914 235.87C92.5064 238.497 92.1364 239.813 91.4424 242.45C92.0024 242.399 92.2824 242.375 92.8424 242.33C92.9774 241.791 93.0444 241.521 93.1824 240.982C94.1354 240.909 94.6124 240.878 95.5664 240.823C95.7674 241.339 95.8654 241.598 96.0624 242.114C96.6434 242.083 96.9344 242.069 97.5154 242.045C96.5074 239.522 95.9804 238.266 94.8834 235.765C94.2464 235.803 93.9284 235.824 93.2914 235.87Z" fill="#1A1919"></path><path fill-rule="evenodd" clip-rule="evenodd" d="M102.252 235.533C102.256 237.32 102.258 238.214 102.262 240.001C101.223 238.217 100.686 237.33 99.5761 235.567C98.9851 235.581 98.6891 235.59 98.0991 235.61C98.1841 238.173 98.2261 239.453 98.3111 242.015C98.8111 241.997 99.0611 241.989 99.5611 241.978C99.5181 240.159 99.4971 239.25 99.4551 237.432C100.58 239.224 101.124 240.126 102.176 241.94C102.712 241.938 102.98 241.939 103.518 241.943C103.536 239.381 103.546 238.1 103.564 235.536C103.039 235.532 102.776 235.531 102.252 235.533Z" fill="#1A1919"></path><path fill-rule="evenodd" clip-rule="evenodd" d="M108.896 235.689C107.806 236.692 107.271 237.2 106.221 238.227C106.249 237.17 106.264 236.643 106.293 235.587C105.738 235.57 105.462 235.563 104.907 235.554C104.863 238.116 104.841 239.397 104.797 241.96C105.325 241.97 105.589 241.977 106.117 241.991C106.141 241.135 106.152 240.706 106.176 239.85C106.446 239.596 106.581 239.469 106.854 239.217C107.626 240.363 108.004 240.939 108.741 242.097C109.431 242.132 109.775 242.151 110.464 242.196C109.449 240.618 108.926 239.835 107.846 238.279C108.972 237.271 109.545 236.773 110.713 235.792C109.986 235.746 109.623 235.726 108.896 235.689Z" fill="#1A1919"></path><path fill-rule="evenodd" clip-rule="evenodd" d="M117.959 241.362C117.6 241.711 117.154 241.854 116.622 241.792C116.09 241.73 115.684 241.49 115.403 241.067C115.123 240.646 115.014 240.075 115.081 239.357C115.149 238.639 115.365 238.102 115.73 237.747C116.096 237.392 116.558 237.245 117.108 237.309C117.659 237.372 118.075 237.62 118.352 238.051C118.628 238.481 118.72 239.054 118.633 239.767C118.545 240.482 118.319 241.014 117.959 241.362ZM117.23 236.18C116.271 236.069 115.506 236.275 114.959 236.689C114.268 237.215 113.818 238.058 113.72 239.228C113.623 240.374 113.908 241.281 114.476 241.952C114.916 242.474 115.587 242.813 116.5 242.919C117.412 243.024 118.14 242.847 118.682 242.438C119.378 241.913 119.849 241.092 120 239.952C120.154 238.789 119.898 237.864 119.338 237.195C118.894 236.665 118.191 236.291 117.23 236.18Z" fill="#1A1919"></path><path fill-rule="evenodd" clip-rule="evenodd" d="M120.594 243.282C121.123 243.361 121.387 243.402 121.915 243.487C122.076 242.427 122.156 241.896 122.317 240.834C123.468 241.02 124.043 241.119 125.19 241.332C125.267 240.894 125.305 240.675 125.381 240.236C124.224 240.022 123.645 239.922 122.483 239.734C122.571 239.152 122.615 238.861 122.704 238.278C124.043 238.494 124.711 238.611 126.046 238.863C126.124 238.42 126.164 238.198 126.242 237.755C124.344 237.396 123.393 237.235 121.485 236.95C121.129 239.483 120.95 240.75 120.594 243.282Z" fill="#1A1919"></path><path fill-rule="evenodd" clip-rule="evenodd" d="M133.76 239.399C133.349 241.136 133.144 242.004 132.732 243.74C132.131 241.749 131.813 240.755 131.138 238.769C130.558 238.636 130.268 238.571 129.687 238.444C129.174 240.953 128.918 242.207 128.406 244.715C128.898 244.821 129.145 244.876 129.636 244.988C130.016 243.213 130.206 242.325 130.587 240.549C131.27 242.567 131.592 243.578 132.198 245.602C132.723 245.733 132.985 245.801 133.509 245.938C134.122 243.455 134.429 242.213 135.042 239.729C134.529 239.595 134.273 239.529 133.76 239.399Z" fill="#1A1919"></path><path fill-rule="evenodd" clip-rule="evenodd" d="M136.218 240.044C135.582 242.522 135.265 243.761 134.629 246.238C135.149 246.381 135.408 246.453 135.928 246.601C136.589 244.13 136.919 242.896 137.58 240.425C137.035 240.27 136.763 240.193 136.218 240.044Z" fill="#1A1919"></path><path fill-rule="evenodd" clip-rule="evenodd" d="M140.721 245.588C141.305 245.776 141.596 245.873 142.178 246.069C141.987 246.444 141.712 246.707 141.355 246.859C141 247.012 140.604 247.018 140.166 246.876C139.72 246.732 139.368 246.45 139.106 246.028C138.847 245.606 138.821 245.019 139.038 244.264C139.253 243.515 139.581 243.004 140.023 242.735C140.466 242.467 140.949 242.416 141.47 242.583C141.74 242.671 141.974 242.796 142.167 242.96C142.512 243.256 142.67 243.63 142.64 244.08C143.165 244.256 143.427 244.346 143.951 244.528C144.07 243.918 143.946 243.331 143.573 242.77C143.201 242.208 142.598 241.789 141.771 241.522C140.816 241.216 139.957 241.278 139.209 241.705C138.459 242.132 137.953 242.849 137.679 243.846C137.407 244.831 137.484 245.693 137.865 246.424C138.237 247.137 138.826 247.635 139.646 247.897C140.144 248.057 140.595 248.091 141 247.999C141.236 247.945 141.524 247.818 141.866 247.615C141.821 247.937 141.799 248.098 141.754 248.419C142.096 248.535 142.267 248.594 142.607 248.712C143.033 247.409 143.246 246.758 143.672 245.455C142.618 245.088 142.09 244.911 141.03 244.568C140.906 244.977 140.845 245.181 140.721 245.588Z" fill="#1A1919"></path><path fill-rule="evenodd" clip-rule="evenodd" d="M146.862 244.661C148.212 245.164 148.884 245.425 150.224 245.968C150.384 245.545 150.464 245.333 150.625 244.91C148.754 244.152 147.813 243.793 145.921 243.111C145.102 245.531 144.692 246.741 143.874 249.16C145.736 249.831 146.663 250.187 148.505 250.936C148.669 250.507 148.75 250.292 148.914 249.863C147.557 249.312 146.875 249.046 145.506 248.536C145.723 247.916 145.831 247.606 146.048 246.986C147.265 247.439 147.871 247.675 149.078 248.16C149.235 247.746 149.313 247.538 149.471 247.124C148.252 246.634 147.641 246.397 146.414 245.94C146.594 245.429 146.683 245.173 146.862 244.661Z" fill="#1A1919"></path><path fill-rule="evenodd" clip-rule="evenodd" d="M154.144 249.369C153.979 249.371 153.759 249.311 153.482 249.188C152.926 248.94 152.647 248.819 152.089 248.579C152.346 247.943 152.474 247.625 152.73 246.989C153.311 247.239 153.6 247.365 154.178 247.622C154.446 247.741 154.634 247.867 154.738 247.997C154.926 248.228 154.942 248.52 154.791 248.875C154.65 249.204 154.435 249.369 154.144 249.369ZM155.582 250.021C155.847 249.823 156.041 249.585 156.163 249.308C156.264 249.079 156.315 248.856 156.317 248.64C156.319 248.425 156.286 248.213 156.219 248.003C156.137 247.749 155.999 247.522 155.808 247.323C155.616 247.125 155.307 246.924 154.879 246.723C153.672 246.183 153.065 245.921 151.849 245.413C150.918 247.789 150.452 248.978 149.521 251.354C150.017 251.561 150.264 251.665 150.757 251.877C151.132 250.949 151.319 250.485 151.693 249.558C152.196 249.773 152.447 249.883 152.948 250.104C153.306 250.263 153.521 250.435 153.599 250.618C153.675 250.801 153.636 251.081 153.483 251.458C153.394 251.678 153.349 251.788 153.26 252.007C153.188 252.182 153.134 252.358 153.097 252.537C153.079 252.623 153.063 252.74 153.045 252.888C153.599 253.14 153.875 253.268 154.427 253.526L154.491 253.38C154.401 253.251 154.375 253.104 154.406 252.938C154.426 252.834 154.494 252.647 154.61 252.381C154.679 252.224 154.714 252.146 154.782 251.988C154.961 251.579 155.035 251.247 155.005 250.993C154.976 250.74 154.843 250.493 154.605 250.254C154.993 250.299 155.318 250.222 155.582 250.021Z" fill="#1A1919"></path><path fill-rule="evenodd" clip-rule="evenodd" d="M158.041 248.188C156.993 250.513 156.47 251.675 155.422 253.999C155.917 254.236 156.164 254.356 156.658 254.601C157.729 252.288 158.266 251.132 159.338 248.82C158.82 248.564 158.561 248.438 158.041 248.188Z" fill="#1A1919"></path><path fill-rule="evenodd" clip-rule="evenodd" d="M162.017 254.668C161.405 254.337 161.1 254.173 160.485 253.851C161.24 253.115 161.62 252.749 162.386 252.022C162.244 253.083 162.17 253.611 162.017 254.668ZM157.396 254.968C157.913 255.228 158.172 255.359 158.688 255.626C159.075 255.237 159.271 255.043 159.662 254.657C160.538 255.114 160.975 255.347 161.844 255.822C161.761 256.374 161.719 256.648 161.633 257.198C162.161 257.49 162.425 257.638 162.951 257.936C163.326 255.224 163.492 253.86 163.779 251.12C163.198 250.805 162.907 250.649 162.323 250.343C160.313 252.162 159.328 253.088 157.396 254.968Z" fill="#1A1919"></path><path fill-rule="evenodd" clip-rule="evenodd" d="M57.9583 144.79C37.7073 145.133 29.4693 137.238 21.7463 126.427C14.0233 115.614 19.8583 101.026 19.8583 100.512C19.8583 100.512 21.0603 107.72 20.8883 109.779C20.7173 111.839 17.7673 113.878 27.0663 128.657C36.3663 143.437 49.3773 139.47 55.2123 139.126C61.0473 138.783 59.8463 136.209 61.5623 135.522C63.2783 134.836 67.9123 140.499 67.9123 140.499C67.9123 140.499 78.2093 144.446 57.9583 144.79ZM65.3383 72.1651C74.2623 74.6131 89.0213 97.7661 91.7673 99.1391C94.5133 100.512 95.7143 101.885 94.5133 102.571C93.3123 103.258 87.2283 101.713 84.1773 101.713C81.1273 101.713 79.0673 100.684 78.8963 99.1391C78.7243 97.5951 79.9253 90.9001 76.1493 86.2681C72.3743 81.6341 66.3673 72.1651 53.1523 72.1651C50.0073 72.1651 46.4593 72.1651 46.4593 72.1651C46.4593 72.1651 54.1833 69.1051 65.3383 72.1651ZM78.8963 143.76C79.2383 141.186 67.5683 131.746 67.5683 131.746L64.1363 129.858C64.1363 129.858 50.0833 139.673 37.8793 131.918C25.6743 124.164 25.3513 113.04 28.6113 98.7961C31.8723 84.5511 46.3603 79.2731 47.1463 78.8411C52.2533 76.0341 57.9583 77.3431 65.1663 81.6651C72.3743 85.9871 74.4343 92.7891 74.2623 95.8781C74.0903 98.9671 75.1203 103.601 77.3513 104.803C79.5823 106.004 92.6253 108.578 97.8953 108.921C103.164 109.265 101.034 103.772 100.52 100.512C100.005 97.2511 88.6783 86.9541 81.4703 78.8411C74.2623 70.7281 65.8533 64.1291 49.7903 65.6731C33.7283 67.2181 25.3513 78.5451 19.1723 86.6101C12.9933 94.6771 11.3553 112.247 16.9403 126.255C22.5263 140.262 36.6773 147.192 44.1383 149.423C51.5983 151.654 69.2853 149.08 74.2623 148.565C79.2383 148.051 78.5523 146.334 78.8963 143.76Z" fill="#D1AF86"></path><path fill-rule="evenodd" clip-rule="evenodd" d="M182.313 126.427C174.59 137.238 166.353 145.133 146.102 144.79C125.851 144.446 136.147 140.499 136.147 140.499C136.147 140.499 140.781 134.836 142.497 135.522C144.214 136.209 143.012 138.783 148.847 139.126C154.683 139.47 167.692 143.437 176.993 128.657C186.293 113.878 183.343 111.839 183.171 109.779C182.999 107.72 184.201 100.512 184.201 100.512C184.201 101.026 190.036 115.614 182.313 126.427ZM150.906 72.1651C137.691 72.1651 131.686 81.6341 127.909 86.2681C124.134 90.9001 125.335 97.5951 125.164 99.1391C124.992 100.684 122.933 101.713 119.882 101.713C116.832 101.713 110.748 103.258 109.546 102.571C108.345 101.885 109.546 100.512 112.292 99.1391C115.038 97.7661 129.797 74.6131 138.722 72.1651C149.877 69.1051 157.6 72.1651 157.6 72.1651C157.6 72.1651 154.053 72.1651 150.906 72.1651ZM184.887 86.6101C178.709 78.5451 170.331 67.2181 154.269 65.6731C138.207 64.1291 129.798 70.7281 122.59 78.8411C115.382 86.9541 104.055 97.2511 103.54 100.512C103.024 103.772 100.896 109.265 106.165 108.921C111.435 108.578 124.478 106.004 126.708 104.803C128.939 103.601 129.969 98.9671 129.798 95.8781C129.626 92.7891 131.686 85.9871 138.894 81.6651C146.102 77.3431 151.807 76.0341 156.913 78.8411C157.699 79.2731 172.188 84.5511 175.448 98.7961C178.709 113.04 178.386 124.164 166.181 131.918C153.976 139.673 139.923 129.858 139.923 129.858L136.49 131.746C136.49 131.746 124.82 141.186 125.164 143.76C125.507 146.334 124.82 148.051 129.798 148.565C134.774 149.08 152.461 151.654 159.922 149.423C167.382 147.192 181.533 140.262 187.118 126.255C192.703 112.247 191.065 94.6771 184.887 86.6101Z" fill="#D1AF86"></path><path fill-rule="evenodd" clip-rule="evenodd" d="M136.513 190.547C135.048 201.579 129.688 207.247 129.688 207.247C129.688 207.247 130.971 204.109 132.108 201.326C136.885 189.637 131.109 180.722 128.586 175.619C126.063 170.517 120.011 169.034 118.776 168.295C117.542 167.556 117.423 165.342 118.525 162.644C119.628 159.945 120.53 153.976 121.541 153.174C122.552 152.372 123.27 153.957 123.429 156.908C123.589 159.859 137.685 181.722 136.513 190.547ZM75.219 208.472C68.937 197.527 65.289 187.237 72.898 169.454C80.505 151.67 80.096 162.28 80.096 162.28C80.096 162.28 83.174 168.533 81.978 169.791C80.781 171.048 79.055 169.006 76.657 174.037C74.261 179.068 66.228 189.068 75.27 202.916C84.311 216.765 87.089 214.931 88.879 215.562C90.669 216.193 96.284 219.997 96.284 219.997C95.853 219.802 81.501 219.415 75.219 208.472ZM125.44 148.644C122.89 146.948 119.051 142.976 117.435 147.768C115.817 152.56 113.264 165.076 113.465 167.507C113.667 169.938 117.184 172.611 119.838 173.634C122.492 174.657 135.187 187.866 120.563 206.526C120.048 207.185 114.021 215.44 100.889 212.907C87.756 210.374 78.537 205.857 76.441 192.112C74.345 178.366 87.661 169.667 87.661 169.667L87.317 165.913C87.317 165.913 83.614 151.999 81.329 151.324C79.045 150.648 77.853 149.389 75.622 153.596C73.391 157.803 64.837 172.469 64.013 179.917C63.189 187.365 63.89 202.52 73.626 212.787C83.362 223.056 98.7 228.289 107.702 225.892C116.705 223.494 129.238 220.391 136.341 206.77C143.443 193.148 140.945 183.199 136.741 173.737C132.538 164.275 127.991 150.339 125.44 148.644Z" fill="#D1AF86"></path></g><defs><clipPath id="clip0"><rect width="203" height="268" fill="white"></rect></clipPath></defs></svg>