<svg xmlns="http://www.w3.org/2000/svg" width="368" height="120" viewBox="0 0 368 120" fill="none"><rect width="368" height="120" rx="20" fill="black"></rect><path d="M123.304 25.272V27.048H116.032V32.688H121.936V34.464H116.032V42H113.848V25.272H123.304ZM137.606 28.848V42H135.422V40.056C135.006 40.728 134.422 41.256 133.67 41.64C132.934 42.008 132.118 42.192 131.222 42.192C130.198 42.192 129.278 41.984 128.462 41.568C127.646 41.136 126.998 40.496 126.518 39.648C126.054 38.8 125.822 37.768 125.822 36.552V28.848H127.982V36.264C127.982 37.56 128.31 38.56 128.966 39.264C129.622 39.952 130.518 40.296 131.654 40.296C132.822 40.296 133.742 39.936 134.414 39.216C135.086 38.496 135.422 37.448 135.422 36.072V28.848H137.606ZM147.701 28.608C149.301 28.608 150.597 29.096 151.589 30.072C152.581 31.032 153.077 32.424 153.077 34.248V42H150.917V34.56C150.917 33.248 150.589 32.248 149.933 31.56C149.277 30.856 148.381 30.504 147.245 30.504C146.093 30.504 145.173 30.864 144.485 31.584C143.813 32.304 143.477 33.352 143.477 34.728V42H141.293V28.848H143.477V30.72C143.909 30.048 144.493 29.528 145.229 29.16C145.981 28.792 146.805 28.608 147.701 28.608ZM155.829 35.376C155.829 34.032 156.101 32.856 156.645 31.848C157.189 30.824 157.933 30.032 158.877 29.472C159.837 28.912 160.909 28.632 162.093 28.632C163.117 28.632 164.069 28.872 164.949 29.352C165.829 29.816 166.501 30.432 166.965 31.2V24.24H169.173V42H166.965V39.528C166.533 40.312 165.893 40.96 165.045 41.472C164.197 41.968 163.205 42.216 162.069 42.216C160.901 42.216 159.837 41.928 158.877 41.352C157.933 40.776 157.189 39.968 156.645 38.928C156.101 37.888 155.829 36.704 155.829 35.376ZM166.965 35.4C166.965 34.408 166.765 33.544 166.365 32.808C165.965 32.072 165.421 31.512 164.733 31.128C164.061 30.728 163.317 30.528 162.501 30.528C161.685 30.528 160.941 30.72 160.269 31.104C159.597 31.488 159.061 32.048 158.661 32.784C158.261 33.52 158.061 34.384 158.061 35.376C158.061 36.384 158.261 37.264 158.661 38.016C159.061 38.752 159.597 39.32 160.269 39.72C160.941 40.104 161.685 40.296 162.501 40.296C163.317 40.296 164.061 40.104 164.733 39.72C165.421 39.32 165.965 38.752 166.365 38.016C166.765 37.264 166.965 36.392 166.965 35.4ZM186.28 45.168L182.944 41.832C182.128 42.056 181.296 42.168 180.448 42.168C178.896 42.168 177.48 41.808 176.2 41.088C174.92 40.352 173.904 39.336 173.152 38.04C172.416 36.728 172.048 35.256 172.048 33.624C172.048 31.992 172.416 30.528 173.152 29.232C173.904 27.92 174.92 26.904 176.2 26.184C177.48 25.448 178.896 25.08 180.448 25.08C182.016 25.08 183.44 25.448 184.72 26.184C186 26.904 187.008 27.912 187.744 29.208C188.48 30.504 188.848 31.976 188.848 33.624C188.848 35.224 188.496 36.664 187.792 37.944C187.088 39.224 186.12 40.232 184.888 40.968L189.112 45.168H186.28ZM174.28 33.624C174.28 34.952 174.544 36.12 175.072 37.128C175.616 38.136 176.352 38.912 177.28 39.456C178.224 40 179.28 40.272 180.448 40.272C181.616 40.272 182.664 40 183.592 39.456C184.536 38.912 185.272 38.136 185.8 37.128C186.344 36.12 186.616 34.952 186.616 33.624C186.616 32.28 186.344 31.112 185.8 30.12C185.272 29.112 184.544 28.336 183.616 27.792C182.688 27.248 181.632 26.976 180.448 26.976C179.264 26.976 178.208 27.248 177.28 27.792C176.352 28.336 175.616 29.112 175.072 30.12C174.544 31.112 174.28 32.28 174.28 33.624ZM203.442 28.848V42H201.258V40.056C200.842 40.728 200.258 41.256 199.506 41.64C198.77 42.008 197.954 42.192 197.058 42.192C196.034 42.192 195.114 41.984 194.298 41.568C193.482 41.136 192.834 40.496 192.354 39.648C191.89 38.8 191.658 37.768 191.658 36.552V28.848H193.818V36.264C193.818 37.56 194.146 38.56 194.802 39.264C195.458 39.952 196.354 40.296 197.49 40.296C198.658 40.296 199.578 39.936 200.25 39.216C200.922 38.496 201.258 37.448 201.258 36.072V28.848H203.442ZM219.129 34.92C219.129 35.336 219.105 35.776 219.057 36.24H208.545C208.625 37.536 209.065 38.552 209.865 39.288C210.681 40.008 211.665 40.368 212.817 40.368C213.761 40.368 214.545 40.152 215.169 39.72C215.809 39.272 216.257 38.68 216.513 37.944H218.865C218.513 39.208 217.809 40.24 216.753 41.04C215.697 41.824 214.385 42.216 212.817 42.216C211.569 42.216 210.449 41.936 209.457 41.376C208.481 40.816 207.713 40.024 207.153 39C206.593 37.96 206.313 36.76 206.313 35.4C206.313 34.04 206.585 32.848 207.129 31.824C207.673 30.8 208.433 30.016 209.409 29.472C210.401 28.912 211.537 28.632 212.817 28.632C214.065 28.632 215.169 28.904 216.129 29.448C217.089 29.992 217.825 30.744 218.337 31.704C218.865 32.648 219.129 33.72 219.129 34.92ZM216.873 34.464C216.873 33.632 216.689 32.92 216.321 32.328C215.953 31.72 215.449 31.264 214.809 30.96C214.185 30.64 213.489 30.48 212.721 30.48C211.617 30.48 210.673 30.832 209.889 31.536C209.121 32.24 208.681 33.216 208.569 34.464H216.873ZM226.668 42.216C225.66 42.216 224.756 42.048 223.956 41.712C223.156 41.36 222.524 40.88 222.06 40.272C221.596 39.648 221.34 38.936 221.292 38.136H223.548C223.612 38.792 223.916 39.328 224.46 39.744C225.02 40.16 225.748 40.368 226.644 40.368C227.476 40.368 228.132 40.184 228.612 39.816C229.092 39.448 229.332 38.984 229.332 38.424C229.332 37.848 229.076 37.424 228.564 37.152C228.052 36.864 227.26 36.584 226.188 36.312C225.212 36.056 224.412 35.8 223.788 35.544C223.18 35.272 222.652 34.88 222.204 34.368C221.772 33.84 221.556 33.152 221.556 32.304C221.556 31.632 221.756 31.016 222.156 30.456C222.556 29.896 223.124 29.456 223.86 29.136C224.596 28.8 225.436 28.632 226.38 28.632C227.836 28.632 229.012 29 229.908 29.736C230.804 30.472 231.284 31.48 231.348 32.76H229.164C229.116 32.072 228.836 31.52 228.324 31.104C227.828 30.688 227.156 30.48 226.308 30.48C225.524 30.48 224.9 30.648 224.436 30.984C223.972 31.32 223.74 31.76 223.74 32.304C223.74 32.736 223.876 33.096 224.148 33.384C224.436 33.656 224.788 33.88 225.204 34.056C225.636 34.216 226.228 34.4 226.98 34.608C227.924 34.864 228.692 35.12 229.284 35.376C229.876 35.616 230.38 35.984 230.796 36.48C231.228 36.976 231.452 37.624 231.468 38.424C231.468 39.144 231.268 39.792 230.868 40.368C230.468 40.944 229.9 41.4 229.164 41.736C228.444 42.056 227.612 42.216 226.668 42.216ZM237.215 30.648V38.4C237.215 39.04 237.351 39.496 237.623 39.768C237.895 40.024 238.367 40.152 239.039 40.152H240.647V42H238.679C237.463 42 236.551 41.72 235.943 41.16C235.335 40.6 235.031 39.68 235.031 38.4V30.648H233.327V28.848H235.031V25.536H237.215V28.848H240.647V30.648H237.215ZM255.428 42.216C254.196 42.216 253.076 41.936 252.068 41.376C251.076 40.816 250.292 40.024 249.716 39C249.156 37.96 248.876 36.76 248.876 35.4C248.876 34.056 249.164 32.872 249.74 31.848C250.332 30.808 251.132 30.016 252.14 29.472C253.148 28.912 254.276 28.632 255.524 28.632C256.772 28.632 257.9 28.912 258.908 29.472C259.916 30.016 260.708 30.8 261.284 31.824C261.876 32.848 262.172 34.04 262.172 35.4C262.172 36.76 261.868 37.96 261.26 39C260.668 40.024 259.86 40.816 258.836 41.376C257.812 41.936 256.676 42.216 255.428 42.216ZM255.428 40.296C256.212 40.296 256.948 40.112 257.636 39.744C258.324 39.376 258.876 38.824 259.292 38.088C259.724 37.352 259.94 36.456 259.94 35.4C259.94 34.344 259.732 33.448 259.316 32.712C258.9 31.976 258.356 31.432 257.684 31.08C257.012 30.712 256.284 30.528 255.5 30.528C254.7 30.528 253.964 30.712 253.292 31.08C252.636 31.432 252.108 31.976 251.708 32.712C251.308 33.448 251.108 34.344 251.108 35.4C251.108 36.472 251.3 37.376 251.684 38.112C252.084 38.848 252.612 39.4 253.268 39.768C253.924 40.12 254.644 40.296 255.428 40.296ZM271.451 28.608C273.051 28.608 274.347 29.096 275.339 30.072C276.331 31.032 276.827 32.424 276.827 34.248V42H274.667V34.56C274.667 33.248 274.339 32.248 273.683 31.56C273.027 30.856 272.131 30.504 270.995 30.504C269.843 30.504 268.923 30.864 268.235 31.584C267.563 32.304 267.227 33.352 267.227 34.728V42H265.043V28.848H267.227V30.72C267.659 30.048 268.243 29.528 268.979 29.16C269.731 28.792 270.555 28.608 271.451 28.608ZM289.457 30.648V38.4C289.457 39.04 289.593 39.496 289.865 39.768C290.137 40.024 290.609 40.152 291.281 40.152H292.889V42H290.921C289.705 42 288.793 41.72 288.185 41.16C287.577 40.6 287.273 39.68 287.273 38.4V30.648H285.569V28.848H287.273V25.536H289.457V28.848H292.889V30.648H289.457ZM302.064 28.608C303.056 28.608 303.952 28.824 304.752 29.256C305.552 29.672 306.176 30.304 306.624 31.152C307.088 32 307.32 33.032 307.32 34.248V42H305.16V34.56C305.16 33.248 304.832 32.248 304.176 31.56C303.52 30.856 302.624 30.504 301.488 30.504C300.336 30.504 299.416 30.864 298.728 31.584C298.056 32.304 297.72 33.352 297.72 34.728V42H295.536V24.24H297.72V30.72C298.152 30.048 298.744 29.528 299.496 29.16C300.264 28.792 301.12 28.608 302.064 28.608ZM322.887 34.92C322.887 35.336 322.863 35.776 322.815 36.24H312.303C312.383 37.536 312.823 38.552 313.623 39.288C314.439 40.008 315.423 40.368 316.575 40.368C317.519 40.368 318.303 40.152 318.927 39.72C319.567 39.272 320.015 38.68 320.271 37.944H322.623C322.271 39.208 321.567 40.24 320.511 41.04C319.455 41.824 318.143 42.216 316.575 42.216C315.327 42.216 314.207 41.936 313.215 41.376C312.239 40.816 311.471 40.024 310.911 39C310.351 37.96 310.071 36.76 310.071 35.4C310.071 34.04 310.343 32.848 310.887 31.824C311.431 30.8 312.191 30.016 313.167 29.472C314.159 28.912 315.295 28.632 316.575 28.632C317.823 28.632 318.927 28.904 319.887 29.448C320.847 29.992 321.583 30.744 322.095 31.704C322.623 32.648 322.887 33.72 322.887 34.92ZM320.631 34.464C320.631 33.632 320.447 32.92 320.079 32.328C319.711 31.72 319.207 31.264 318.567 30.96C317.943 30.64 317.247 30.48 316.479 30.48C315.375 30.48 314.431 30.832 313.647 31.536C312.879 32.24 312.439 33.216 312.327 34.464H320.631Z" fill="white"></path><path d="M162.96 54.86L152.248 91H145.54L137.948 63.648L129.888 91L123.232 91.052L112.988 54.86H119.28L126.768 84.292L134.88 54.86H141.536L149.076 84.136L156.616 54.86H162.96ZM194.109 75.972C194.109 77.0467 194.04 78.0173 193.901 78.884H172.009C172.183 81.172 173.032 83.0093 174.557 84.396C176.083 85.7827 177.955 86.476 180.173 86.476C183.363 86.476 185.616 85.1413 186.933 82.472H193.329C192.463 85.1067 190.885 87.2733 188.597 88.972C186.344 90.636 183.536 91.468 180.173 91.468C177.435 91.468 174.973 90.8613 172.789 89.648C170.64 88.4 168.941 86.6667 167.693 84.448C166.48 82.1947 165.873 79.5947 165.873 76.648C165.873 73.7013 166.463 71.1187 167.641 68.9C168.855 66.6467 170.536 64.9133 172.685 63.7C174.869 62.4867 177.365 61.88 180.173 61.88C182.877 61.88 185.287 62.4693 187.401 63.648C189.516 64.8267 191.163 66.4907 192.341 68.64C193.52 70.7547 194.109 73.1987 194.109 75.972ZM187.921 74.1C187.887 71.916 187.107 70.1653 185.581 68.848C184.056 67.5307 182.167 66.872 179.913 66.872C177.868 66.872 176.117 67.5307 174.661 68.848C173.205 70.1307 172.339 71.8813 172.061 74.1H187.921ZM205.871 66.612C206.876 65.2253 208.246 64.0987 209.979 63.232C211.747 62.3307 213.706 61.88 215.855 61.88C218.386 61.88 220.674 62.4867 222.719 63.7C224.764 64.9133 226.376 66.6467 227.555 68.9C228.734 71.1187 229.323 73.6667 229.323 76.544C229.323 79.4213 228.734 82.004 227.555 84.292C226.376 86.5453 224.747 88.3133 222.667 89.596C220.622 90.844 218.351 91.468 215.855 91.468C213.636 91.468 211.66 91.0347 209.927 90.168C208.228 89.3013 206.876 88.192 205.871 86.84V91H199.943V52.52H205.871V66.612ZM223.291 76.544C223.291 74.568 222.875 72.8693 222.043 71.448C221.246 69.992 220.171 68.9 218.819 68.172C217.502 67.4093 216.08 67.028 214.555 67.028C213.064 67.028 211.643 67.4093 210.291 68.172C208.974 68.9347 207.899 70.044 207.067 71.5C206.27 72.956 205.871 74.672 205.871 76.648C205.871 78.624 206.27 80.3573 207.067 81.848C207.899 83.304 208.974 84.4133 210.291 85.176C211.643 85.9387 213.064 86.32 214.555 86.32C216.08 86.32 217.502 85.9387 218.819 85.176C220.171 84.3787 221.246 83.2347 222.043 81.744C222.875 80.2533 223.291 78.52 223.291 76.544Z" fill="white"></path><path d="M88 31H37.3333C33.8355 31 31 33.8355 31 37.3333V69C31 72.4978 33.8355 75.3333 37.3333 75.3333H88C91.4978 75.3333 94.3333 72.4978 94.3333 69V37.3333C94.3333 33.8355 91.4978 31 88 31Z" stroke="white" stroke-width="4" stroke-linecap="round"></path><path d="M50 88H75.3333" stroke="white" stroke-width="4" stroke-linecap="round"></path><path d="M62.6666 75.3335V88.0002" stroke="white" stroke-width="4" stroke-linecap="round"></path></svg>